<?xml version="1.0" encoding="UTF-8"?>
<svg id="Ebene_2" data-name="Ebene 2" xmlns="http://www.w3.org/2000/svg" width="133.92" height="24.6" viewBox="0 0 133.92 24.6">
  <defs>
    <style>
      .cls-1 {
        fill: #d44124;
      }
    </style>
  </defs>
  <g id="Ebene_1-2" data-name="Ebene 1">
    <g>
      <polygon class="cls-1" points="2.64 6.76 3.96 9.6 13.11 9.6 13.11 6.76 2.64 6.76"/>
      <polygon class="cls-1" points="13.11 3.93 13.11 1.09 0 1.09 1.32 3.93 13.11 3.93"/>
    </g>
    <g>
      <path d="M21.67.7h2.3c1.8,0,2.81.92,2.81,2.39,0,1.19-.86,1.69-.99,1.71.12.02,1.46.41,1.46,2.15,0,1.52-1.12,2.5-2.85,2.5h-2.74V.7ZM24.15,4.47c.99,0,1.59-.54,1.59-1.39s-.6-1.39-1.59-1.39h-1.42v2.77h1.42ZM26.21,6.95c0-.82-.55-1.5-1.8-1.5h-1.69v3h1.69c1.25,0,1.8-.68,1.8-1.5Z"/>
      <path d="M29.24,7.39v-3.71h1.05v3.54c0,.99.61,1.41,1.39,1.41.98,0,1.44-.95,1.44-.95v-4h1.05v5.77h-.97v-.89s-.53,1.04-1.77,1.04c-1.15,0-2.17-.79-2.17-2.21Z"/>
      <path d="M41.43,5.74v3.71h-1.05v-3.54c0-.99-.61-1.41-1.39-1.41-.94,0-1.44.97-1.44.97v3.97h-1.05V3.67h.97v.81s.53-.96,1.77-.96c1.15,0,2.17.79,2.17,2.21Z"/>
      <path d="M48.05,4.39V0h1.05v9.45h-.96v-.84s-.56.99-1.95.99c-1.56,0-2.8-1.34-2.8-3.04s1.24-3.04,2.8-3.04c1.27,0,1.86.86,1.86.86ZM48.05,5.5s-.55-1-1.7-1-1.91.92-1.91,2.06.74,2.06,1.91,2.06,1.7-1,1.7-1v-2.12Z"/>
      <path d="M56.97,6.6c0,.11,0,.2-.01.34h-4.66c.06.87.9,1.69,1.99,1.69s1.74-.85,1.74-.85l.66.69s-.88,1.14-2.4,1.14c-1.75,0-3.01-1.32-3.01-3.04s1.15-3.04,2.89-3.04c1.61,0,2.81,1.21,2.81,3.07ZM55.95,6.06c-.04-.65-.62-1.56-1.79-1.56-1.25,0-1.76.96-1.84,1.56h3.62Z"/>
      <path d="M59.27,7.71s.61.94,1.75.94c.59,0,1.25-.25,1.25-.71,0-.5-.43-.75-1.31-.92-1.24-.25-2.11-.74-2.11-1.82,0-.84.84-1.66,2.12-1.66,1.36,0,2.14.87,2.14.87l-.69.71s-.58-.64-1.45-.64c-.74,0-1.1.36-1.1.74,0,.44.45.67,1.4.87,1.1.24,2.04.65,2.04,1.82,0,1.11-1.17,1.69-2.29,1.69-1.62,0-2.47-1.21-2.47-1.21l.72-.68Z"/>
      <path d="M73.46,5.74v3.71h-1.05v-3.55c0-.94-.49-1.4-1.24-1.4-.86,0-1.24.92-1.24.92v4.02h-1.05v-3.55c0-.94-.49-1.4-1.24-1.4-.85,0-1.24.92-1.24.92v4.02h-1.05V3.67h.97v.85s.42-1,1.6-1c1.44,0,1.8,1.07,1.8,1.07,0,0,.46-1.07,1.72-1.07s2,.79,2,2.21Z"/>
      <path d="M76.52,1.11c.39,0,.71.32.71.71s-.33.71-.71.71-.71-.33-.71-.71.33-.71.71-.71ZM76,3.67h1.05v5.77h-1.05V3.67Z"/>
      <path d="M84.51,5.74v3.71h-1.05v-3.54c0-.99-.61-1.41-1.39-1.41-.94,0-1.44.97-1.44.97v3.97h-1.05V3.67h.97v.81s.53-.96,1.77-.96c1.15,0,2.17.79,2.17,2.21Z"/>
      <path d="M87.57,1.11c.39,0,.71.32.71.71s-.33.71-.71.71-.71-.33-.71-.71.33-.71.71-.71ZM87.05,3.67h1.05v5.77h-1.05V3.67Z"/>
      <path d="M90.98,7.71s.61.94,1.75.94c.59,0,1.25-.25,1.25-.71,0-.5-.43-.75-1.31-.92-1.24-.25-2.11-.74-2.11-1.82,0-.84.84-1.66,2.12-1.66,1.36,0,2.14.87,2.14.87l-.69.71s-.58-.64-1.45-.64c-.74,0-1.1.36-1.1.74,0,.44.45.67,1.4.87,1.1.24,2.04.65,2.04,1.82,0,1.11-1.17,1.69-2.29,1.69-1.62,0-2.47-1.21-2.47-1.21l.72-.68Z"/>
      <path d="M96.57,3.67h1.12v-1.76h1.05v1.76h1.8v.95h-1.8v3.11c0,.56.27.89.84.89.33,0,.66-.24.66-.24l.39.86c-.5.27-.86.35-1.2.35-.83,0-1.74-.54-1.74-1.81v-3.16h-1.12v-.95Z"/>
      <path d="M107.82,6.6c0,.11,0,.2-.01.34h-4.66c.06.87.9,1.69,1.99,1.69s1.74-.85,1.74-.85l.66.69s-.88,1.14-2.4,1.14c-1.75,0-3.01-1.32-3.01-3.04s1.15-3.04,2.89-3.04c1.61,0,2.81,1.21,2.81,3.07ZM106.8,6.06c-.04-.65-.62-1.56-1.79-1.56-1.25,0-1.76.96-1.84,1.56h3.62Z"/>
      <path d="M113.19,3.67l-.39.95s-.23-.12-.66-.12c-.91,0-1.32.97-1.32.97v3.97h-1.05V3.67h.97v.89s.51-1.04,1.61-1.04c.47,0,.84.15.84.15Z"/>
      <path d="M115.48,1.11c.39,0,.71.32.71.71s-.33.71-.71.71-.71-.33-.71-.71.33-.71.71-.71ZM114.96,3.67h1.05v5.77h-1.05V3.67Z"/>
      <path d="M118.55,7.39v-3.71h1.05v3.54c0,.99.61,1.41,1.39,1.41.98,0,1.44-.95,1.44-.95v-4h1.05v5.77h-.97v-.89s-.53,1.04-1.77,1.04c-1.15,0-2.17-.79-2.17-2.21Z"/>
      <path d="M133.92,5.74v3.71h-1.05v-3.55c0-.94-.49-1.4-1.24-1.4-.86,0-1.24.92-1.24.92v4.02h-1.05v-3.55c0-.94-.49-1.4-1.24-1.4-.85,0-1.24.92-1.24.92v4.02h-1.05V3.67h.97v.85s.42-1,1.6-1c1.44,0,1.8,1.07,1.8,1.07,0,0,.46-1.07,1.72-1.07s2,.79,2,2.21Z"/>
      <path d="M21.92,15.7h.65v8.75h-.65v-8.75Z"/>
      <path d="M30.17,20.81v3.64h-.65v-3.54c0-1.17-.69-1.67-1.61-1.67-1.26,0-1.76,1.27-1.76,1.27v3.94h-.65v-5.7h.59v1.04s.55-1.19,1.95-1.19c1.06,0,2.14.66,2.14,2.21Z"/>
      <path d="M37.4,20.81v3.64h-.65v-3.54c0-1.17-.69-1.67-1.61-1.67-1.26,0-1.76,1.27-1.76,1.27v3.94h-.65v-5.7h.59v1.04s.55-1.19,1.95-1.19c1.06,0,2.14.66,2.14,2.21Z"/>
      <path d="M45.07,21.6c0,.11,0,.12-.01.26h-4.91c.05.86.76,2.1,2.27,2.1.88,0,1.56-.49,1.95-.97l.44.45c-.55.66-1.45,1.16-2.39,1.16-1.7,0-2.92-1.37-2.92-3s1.11-3,2.81-3c1.51,0,2.76,1.25,2.76,3ZM44.4,21.26c-.03-.65-.59-2.02-2.09-2.02-1.59,0-2.11,1.4-2.14,2.02h4.22Z"/>
      <path d="M50.31,18.75l-.27.62s-.24-.14-.76-.14c-.99,0-1.45,1.1-1.45,1.1v4.11h-.65v-5.7h.59v.92s.49-1.07,1.66-1.07c.54,0,.89.15.89.15Z"/>
      <path d="M56.98,21.6c0,.11,0,.12-.01.26h-4.91c.05.86.76,2.1,2.27,2.1.88,0,1.56-.49,1.95-.97l.44.45c-.55.66-1.45,1.16-2.39,1.16-1.7,0-2.92-1.37-2.92-3s1.11-3,2.81-3c1.51,0,2.76,1.25,2.76,3ZM56.31,21.26c-.03-.65-.59-2.02-2.09-2.02-1.59,0-2.11,1.4-2.14,2.02h4.22Z"/>
      <path d="M59.16,22.95s.58,1.01,1.92,1.01c.62,0,1.49-.25,1.49-1,0-.65-.7-.85-1.59-1.05-1.25-.27-2.02-.75-2.02-1.7,0-.81.76-1.61,2.01-1.61,1.34,0,2.04.8,2.04.8l-.43.48s-.59-.64-1.61-.64c-.78,0-1.35.39-1.35.98,0,.7.75.9,1.71,1.11,1.06.24,1.91.61,1.91,1.64,0,1.09-1.09,1.64-2.16,1.64-1.69,0-2.44-1.21-2.44-1.21l.51-.44Z"/>
    </g>
  </g>
</svg>