<?xml version="1.0" encoding="UTF-8"?>
<svg id="Ebene_2" data-name="Ebene 2" xmlns="http://www.w3.org/2000/svg" width="18.39" height="18.39" viewBox="0 0 18.39 18.39">
  <defs>
    <style>
      .cls-1 {
        fill: #181716;
      }
    </style>
  </defs>
  <g id="Ebene_1-2" data-name="Ebene 1">
    <path class="cls-1" d="M12.99,18.39h-.84c-2.98,0-5.4-2.42-5.4-5.4,0-.55.45-1,1-1s1,.45,1,1c0,1.87,1.52,3.4,3.4,3.4h.84c1.87,0,3.4-1.52,3.4-3.4v-7.59c0-1.87-1.52-3.4-3.4-3.4h-.84c-.91,0-1.76.35-2.4,1-.92.92-1,2.07-1,2.4,0,.55-.45,1-1,1s-1-.45-1-1c0-.67.15-2.39,1.58-3.82,1.02-1.02,2.38-1.58,3.82-1.58h.84c2.98,0,5.4,2.42,5.4,5.4v7.59c0,2.98-2.42,5.4-5.4,5.4Z"/>
    <path class="cls-1" d="M11.63,8.2H3.05l1.87-2.16c.36-.42.32-1.05-.1-1.41-.42-.36-1.05-.32-1.41.1L.35,8.26c-.47.54-.47,1.34,0,1.87l3.06,3.53c.2.23.48.35.76.35.23,0,.47-.08.66-.24.42-.36.46-.99.1-1.41l-1.87-2.16h8.58c.55,0,1-.45,1-1s-.45-1-1-1Z"/>
  </g>
</svg>