<?xml version="1.0" encoding="UTF-8"?>
<svg id="Ebene_2" data-name="Ebene 2" xmlns="http://www.w3.org/2000/svg" width="18.4" height="18.4" viewBox="0 0 18.4 18.4">
  <defs>
    <style>
      .cls-1 {
        fill: #181716;
      }

      .cls-2 {
        fill: none;
        stroke: #181716;
        stroke-linecap: round;
        stroke-miterlimit: 10;
        stroke-width: 2px;
      }
    </style>
  </defs>
  <g id="Ebene_1-2" data-name="Ebene 1">
    <path class="cls-1" d="M12.99,18.4h-7.58c-2.98,0-5.41-2.42-5.41-5.41v-7.58C0,2.43,2.42.01,5.41.01h4.58c.55,0,1,.45,1,1s-.45,1-1,1h-4.58c-1.88,0-3.41,1.53-3.41,3.41v7.58c0,1.88,1.53,3.41,3.41,3.41h7.58c1.88,0,3.41-1.53,3.41-3.41v-4.58c0-.55.45-1,1-1s1,.45,1,1v4.58c0,2.98-2.42,5.41-5.41,5.41Z"/>
    <path class="cls-1" d="M14.72,7.03c-.26,0-.51-.1-.71-.29l-2.35-2.35c-.39-.39-.39-1.02,0-1.41s1.02-.39,1.41,0l2.35,2.35c.39.39.39,1.02,0,1.41-.2.2-.45.29-.71.29Z"/>
    <path class="cls-2" d="M10.57,10.79l-3.06.69c-.35.08-.67-.24-.59-.59l.69-3.06L14.11,1.33c.44-.44,1.15-.44,1.59,0l1.37,1.37c.44.44.44,1.15,0,1.59,0,0-6.5,6.5-6.5,6.5Z"/>
  </g>
</svg>